<svg width="24" height="24" viewBox="0 0 24 24" xmlns="http://www.w3.org/2000/svg"><g id="user_added_outline_24__Page-2" stroke="none" stroke-width="1" fill="none" fill-rule="evenodd"><g id="user_added_outline_24__user_added_outline_24"><path id="user_added_outline_24__Bounds" d="M0 0h24v24H0z"></path><path d="M18.85 7.95a2.85 2.85 0 1 0-5.7 0 2.85 2.85 0 0 0 5.7 0Zm1.8 0a4.65 4.65 0 1 1-9.3 0 4.65 4.65 0 0 1 9.3 0ZM9.9 18.43c0 .77-.1.67.34.67h11.52c.43 0 .34.1.34-.67 0-1.9-2.78-3.03-6.1-3.03s-6.1 1.14-6.1 3.03Zm-1.8 0c0-3.33 3.67-4.83 7.9-4.83s7.9 1.5 7.9 4.83c0 1.73-.69 2.47-2.14 2.47H10.24c-1.45 0-2.14-.74-2.14-2.47Zm.26-9.57a.9.9 0 1 1 1.28 1.28l-5 5a.9.9 0 0 1-1.28 0l-2.5-2.5a.9.9 0 1 1 1.28-1.28L4 13.23l4.36-4.37Z" id="user_added_outline_24__Mask" fill="#5181B8" fill-rule="nonzero"></path></g></g></svg>